<?xml version="1.0" encoding="UTF-8" ?>
<svg version="1.1" width="64" height="64" xmlns="http://www.w3.org/2000/svg" shape-rendering="crispEdges">
<rect x="1" y="32" width="5" height="1" fill="#000000" />
<rect x="6" y="32" width="53" height="1" fill="#4A2B26" opacity="0.462745" />
<rect x="59" y="32" width="5" height="1" fill="#000000" />
<rect x="0" y="33" width="1" height="3" fill="#000000" />
<rect x="1" y="33" width="5" height="1" fill="#663931" />
<rect x="6" y="33" width="2" height="1" fill="#000000" />
<rect x="8" y="33" width="49" height="1" fill="#4A2B26" opacity="0.737255" />
<rect x="57" y="33" width="2" height="1" fill="#000000" />
<rect x="59" y="33" width="4" height="3" fill="#663931" />
<rect x="63" y="33" width="1" height="4" fill="#000000" />
<rect x="1" y="34" width="3" height="1" fill="#663931" />
<rect x="4" y="34" width="1" height="1" fill="#5B342D" />
<rect x="5" y="34" width="3" height="1" fill="#663931" />
<rect x="8" y="34" width="2" height="1" fill="#000000" />
<rect x="10" y="34" width="45" height="1" fill="#4A2B26" opacity="0.737255" />
<rect x="55" y="34" width="2" height="1" fill="#000000" />
<rect x="57" y="34" width="2" height="2" fill="#663931" />
<rect x="1" y="35" width="2" height="1" fill="#663931" />
<rect x="3" y="35" width="1" height="1" fill="#492923" />
<rect x="4" y="35" width="1" height="1" fill="#663931" />
<rect x="5" y="35" width="2" height="1" fill="#5B342D" />
<rect x="7" y="35" width="3" height="1" fill="#663931" />
<rect x="10" y="35" width="2" height="1" fill="#000000" />
<rect x="12" y="35" width="41" height="1" fill="#4A2B26" opacity="0.737255" />
<rect x="53" y="35" width="2" height="1" fill="#000000" />
<rect x="55" y="35" width="2" height="2" fill="#663931" />
<rect x="0" y="36" width="1" height="14" fill="#2D2725" opacity="0.333333" />
<rect x="1" y="36" width="2" height="1" fill="#000000" />
<rect x="3" y="36" width="1" height="1" fill="#663931" />
<rect x="4" y="36" width="2" height="1" fill="#492923" />
<rect x="6" y="36" width="1" height="1" fill="#663931" />
<rect x="7" y="36" width="2" height="1" fill="#5B342D" />
<rect x="9" y="36" width="3" height="1" fill="#663931" />
<rect x="12" y="36" width="2" height="1" fill="#000000" />
<rect x="14" y="36" width="37" height="1" fill="#4A2B26" opacity="0.737255" />
<rect x="51" y="36" width="2" height="1" fill="#000000" />
<rect x="53" y="36" width="2" height="2" fill="#663931" />
<rect x="57" y="36" width="1" height="1" fill="#663931" />
<rect x="58" y="36" width="1" height="1" fill="#5B342D" />
<rect x="59" y="36" width="1" height="1" fill="#462822" />
<rect x="60" y="36" width="1" height="1" fill="#492923" />
<rect x="61" y="36" width="1" height="1" fill="#663931" />
<rect x="62" y="36" width="1" height="1" fill="#000000" />
<rect x="1" y="37" width="2" height="13" fill="#2D2725" opacity="0.333333" />
<rect x="3" y="37" width="2" height="1" fill="#000000" />
<rect x="5" y="37" width="1" height="1" fill="#663931" />
<rect x="6" y="37" width="2" height="1" fill="#492923" />
<rect x="8" y="37" width="1" height="1" fill="#663931" />
<rect x="9" y="37" width="1" height="1" fill="#5B342D" />
<rect x="10" y="37" width="4" height="1" fill="#663931" />
<rect x="14" y="37" width="1" height="1" fill="#000000" />
<rect x="15" y="37" width="1" height="1" fill="#2D1916" />
<rect x="16" y="37" width="33" height="1" fill="#4A2B26" opacity="0.929412" />
<rect x="49" y="37" width="2" height="1" fill="#000000" />
<rect x="51" y="37" width="2" height="2" fill="#663931" />
<rect x="55" y="37" width="1" height="1" fill="#663931" />
<rect x="56" y="37" width="1" height="1" fill="#5B342D" />
<rect x="57" y="37" width="1" height="1" fill="#462822" />
<rect x="58" y="37" width="1" height="1" fill="#492923" />
<rect x="59" y="37" width="1" height="1" fill="#663931" />
<rect x="60" y="37" width="2" height="1" fill="#000000" />
<rect x="62" y="37" width="2" height="22" fill="#2D2725" opacity="0.333333" />
<rect x="3" y="38" width="2" height="11" fill="#2D2725" opacity="0.333333" />
<rect x="5" y="38" width="2" height="1" fill="#000000" />
<rect x="7" y="38" width="1" height="1" fill="#663931" />
<rect x="8" y="38" width="2" height="1" fill="#492923" />
<rect x="10" y="38" width="2" height="1" fill="#5B342D" />
<rect x="12" y="38" width="4" height="1" fill="#663931" />
<rect x="16" y="38" width="2" height="1" fill="#2D1916" />
<rect x="18" y="38" width="1" height="1" fill="#4A2B26" opacity="0.929412" />
<rect x="19" y="38" width="9" height="1" fill="#4A2B26" opacity="0.980392" />
<rect x="28" y="38" width="5" height="1" fill="#4A2B26" opacity="0.929412" />
<rect x="33" y="38" width="10" height="1" fill="#4A2B26" opacity="0.980392" />
<rect x="43" y="38" width="4" height="1" fill="#4A2B26" opacity="0.929412" />
<rect x="47" y="38" width="2" height="1" fill="#000000" />
<rect x="49" y="38" width="2" height="2" fill="#663931" />
<rect x="53" y="38" width="1" height="1" fill="#663931" />
<rect x="54" y="38" width="1" height="1" fill="#5B342D" />
<rect x="55" y="38" width="1" height="1" fill="#462822" />
<rect x="56" y="38" width="1" height="1" fill="#492923" />
<rect x="57" y="38" width="1" height="1" fill="#663931" />
<rect x="58" y="38" width="2" height="1" fill="#000000" />
<rect x="60" y="38" width="2" height="20" fill="#2D2725" opacity="0.333333" />
<rect x="5" y="39" width="2" height="10" fill="#2D2725" opacity="0.333333" />
<rect x="7" y="39" width="2" height="1" fill="#000000" />
<rect x="9" y="39" width="1" height="1" fill="#663931" />
<rect x="10" y="39" width="2" height="1" fill="#492923" />
<rect x="12" y="39" width="2" height="1" fill="#5B342D" />
<rect x="14" y="39" width="4" height="1" fill="#663931" />
<rect x="18" y="39" width="2" height="1" fill="#2D1916" />
<rect x="20" y="39" width="15" height="1" fill="#4A2B26" opacity="0.980392" />
<rect x="35" y="39" width="9" height="1" fill="#4A2B26" opacity="0.929412" />
<rect x="44" y="39" width="3" height="1" fill="#000000" />
<rect x="47" y="39" width="2" height="1" fill="#663931" />
<rect x="51" y="39" width="1" height="1" fill="#663931" />
<rect x="52" y="39" width="2" height="1" fill="#5B342D" />
<rect x="54" y="39" width="1" height="1" fill="#492923" />
<rect x="55" y="39" width="1" height="1" fill="#663931" />
<rect x="56" y="39" width="2" height="1" fill="#000000" />
<rect x="58" y="39" width="2" height="18" fill="#2D2725" opacity="0.333333" />
<rect x="7" y="40" width="2" height="9" fill="#2D2725" opacity="0.333333" />
<rect x="9" y="40" width="2" height="1" fill="#000000" />
<rect x="11" y="40" width="1" height="1" fill="#663931" />
<rect x="12" y="40" width="2" height="1" fill="#492923" />
<rect x="14" y="40" width="1" height="1" fill="#5B342D" />
<rect x="15" y="40" width="5" height="1" fill="#663931" />
<rect x="20" y="40" width="1" height="1" fill="#2D1916" />
<rect x="21" y="40" width="2" height="1" fill="#000000" />
<rect x="23" y="40" width="11" height="1" fill="#4A2B26" opacity="0.929412" />
<rect x="34" y="40" width="7" height="1" fill="#4A2B26" opacity="0.980392" />
<rect x="41" y="40" width="1" height="1" fill="#4A2B26" opacity="0.929412" />
<rect x="42" y="40" width="2" height="1" fill="#000000" />
<rect x="44" y="40" width="4" height="1" fill="#663931" />
<rect x="48" y="40" width="2" height="1" fill="#492923" />
<rect x="50" y="40" width="2" height="1" fill="#5B342D" />
<rect x="52" y="40" width="2" height="1" fill="#663931" />
<rect x="54" y="40" width="2" height="1" fill="#000000" />
<rect x="56" y="40" width="2" height="16" fill="#2D2725" opacity="0.333333" />
<rect x="9" y="41" width="2" height="7" fill="#2D2725" opacity="0.333333" />
<rect x="11" y="41" width="2" height="1" fill="#000000" />
<rect x="13" y="41" width="1" height="1" fill="#663931" />
<rect x="14" y="41" width="1" height="1" fill="#492923" />
<rect x="15" y="41" width="1" height="1" fill="#462822" />
<rect x="16" y="41" width="1" height="1" fill="#5B342D" />
<rect x="17" y="41" width="3" height="1" fill="#663931" />
<rect x="20" y="41" width="1" height="1" fill="#5B342D" />
<rect x="21" y="41" width="2" height="1" fill="#492923" />
<rect x="23" y="41" width="1" height="1" fill="#000000" />
<rect x="24" y="41" width="1" height="1" fill="#361F1C" />
<rect x="25" y="41" width="2" height="1" fill="#4A2B26" opacity="0.929412" />
<rect x="27" y="41" width="9" height="1" fill="#4A2B26" opacity="0.980392" />
<rect x="36" y="41" width="4" height="1" fill="#4A2B26" opacity="0.929412" />
<rect x="40" y="41" width="2" height="1" fill="#000000" />
<rect x="42" y="41" width="4" height="1" fill="#663931" />
<rect x="46" y="41" width="1" height="1" fill="#492923" />
<rect x="47" y="41" width="1" height="1" fill="#462822" />
<rect x="48" y="41" width="2" height="1" fill="#5B342D" />
<rect x="50" y="41" width="2" height="1" fill="#663931" />
<rect x="52" y="41" width="2" height="1" fill="#000000" />
<rect x="54" y="41" width="2" height="14" fill="#2D2725" opacity="0.333333" />
<rect x="11" y="42" width="2" height="6" fill="#2D2725" opacity="0.333333" />
<rect x="13" y="42" width="2" height="1" fill="#000000" />
<rect x="15" y="42" width="1" height="1" fill="#663931" />
<rect x="16" y="42" width="1" height="1" fill="#492923" />
<rect x="17" y="42" width="1" height="1" fill="#462822" />
<rect x="18" y="42" width="1" height="1" fill="#5B342D" />
<rect x="19" y="42" width="2" height="1" fill="#663931" />
<rect x="21" y="42" width="2" height="1" fill="#5B342D" />
<rect x="23" y="42" width="1" height="1" fill="#492923" />
<rect x="24" y="42" width="1" height="1" fill="#522F29" />
<rect x="25" y="42" width="2" height="1" fill="#361F1C" />
<rect x="27" y="42" width="1" height="1" fill="#4A2B26" opacity="0.929412" />
<rect x="28" y="42" width="8" height="1" fill="#4A2B26" opacity="0.980392" />
<rect x="36" y="42" width="2" height="1" fill="#4A2B26" opacity="0.929412" />
<rect x="38" y="42" width="2" height="1" fill="#000000" />
<rect x="40" y="42" width="4" height="1" fill="#663931" />
<rect x="44" y="42" width="1" height="1" fill="#492923" />
<rect x="45" y="42" width="1" height="1" fill="#462822" />
<rect x="46" y="42" width="1" height="1" fill="#5B342D" />
<rect x="47" y="42" width="3" height="1" fill="#663931" />
<rect x="50" y="42" width="2" height="1" fill="#000000" />
<rect x="52" y="42" width="2" height="12" fill="#2D2725" opacity="0.333333" />
<rect x="13" y="43" width="2" height="10" fill="#2D2725" opacity="0.333333" />
<rect x="15" y="43" width="2" height="1" fill="#000000" />
<rect x="17" y="43" width="1" height="1" fill="#663931" />
<rect x="18" y="43" width="1" height="1" fill="#492923" />
<rect x="19" y="43" width="1" height="1" fill="#462822" />
<rect x="20" y="43" width="3" height="1" fill="#663931" />
<rect x="23" y="43" width="1" height="1" fill="#5B342D" />
<rect x="24" y="43" width="1" height="1" fill="#462822" />
<rect x="25" y="43" width="1" height="1" fill="#492923" />
<rect x="26" y="43" width="1" height="1" fill="#663931" />
<rect x="27" y="43" width="2" height="1" fill="#000000" />
<rect x="29" y="43" width="1" height="1" fill="#4A2B26" opacity="0.929412" />
<rect x="30" y="43" width="6" height="1" fill="#4A2B26" opacity="0.980392" />
<rect x="36" y="43" width="2" height="1" fill="#000000" />
<rect x="38" y="43" width="4" height="1" fill="#663931" />
<rect x="42" y="43" width="1" height="1" fill="#492923" />
<rect x="43" y="43" width="1" height="1" fill="#462822" />
<rect x="44" y="43" width="1" height="1" fill="#5B342D" />
<rect x="45" y="43" width="2" height="1" fill="#663931" />
<rect x="47" y="43" width="3" height="1" fill="#000000" />
<rect x="50" y="43" width="2" height="10" fill="#2D2725" opacity="0.333333" />
<rect x="15" y="44" width="2" height="8" fill="#2D2725" opacity="0.333333" />
<rect x="17" y="44" width="2" height="1" fill="#000000" />
<rect x="19" y="44" width="1" height="1" fill="#663931" />
<rect x="20" y="44" width="2" height="1" fill="#5B342D" />
<rect x="22" y="44" width="3" height="1" fill="#663931" />
<rect x="25" y="44" width="1" height="1" fill="#5B342D" />
<rect x="26" y="44" width="1" height="1" fill="#462822" />
<rect x="27" y="44" width="1" height="1" fill="#492923" />
<rect x="28" y="44" width="1" height="1" fill="#663931" />
<rect x="29" y="44" width="1" height="1" fill="#000000" />
<rect x="30" y="44" width="1" height="1" fill="#361F1C" />
<rect x="31" y="44" width="3" height="1" fill="#4A2B26" />
<rect x="34" y="44" width="2" height="1" fill="#000000" />
<rect x="36" y="44" width="4" height="1" fill="#663931" />
<rect x="40" y="44" width="1" height="1" fill="#492923" />
<rect x="41" y="44" width="1" height="1" fill="#462822" />
<rect x="42" y="44" width="1" height="1" fill="#5B342D" />
<rect x="43" y="44" width="2" height="1" fill="#663931" />
<rect x="45" y="44" width="2" height="1" fill="#000000" />
<rect x="47" y="44" width="3" height="8" fill="#2D2725" opacity="0.333333" />
<rect x="17" y="45" width="2" height="6" fill="#2D2725" opacity="0.333333" />
<rect x="19" y="45" width="2" height="1" fill="#000000" />
<rect x="21" y="45" width="1" height="1" fill="#663931" />
<rect x="22" y="45" width="2" height="1" fill="#5B342D" />
<rect x="24" y="45" width="3" height="1" fill="#663931" />
<rect x="27" y="45" width="1" height="1" fill="#5B342D" />
<rect x="28" y="45" width="1" height="1" fill="#462822" />
<rect x="29" y="45" width="2" height="1" fill="#663931" />
<rect x="31" y="45" width="3" height="1" fill="#000000" />
<rect x="34" y="45" width="4" height="1" fill="#663931" />
<rect x="38" y="45" width="1" height="1" fill="#492923" />
<rect x="39" y="45" width="1" height="1" fill="#462822" />
<rect x="40" y="45" width="1" height="1" fill="#5B342D" />
<rect x="41" y="45" width="2" height="1" fill="#663931" />
<rect x="43" y="45" width="2" height="1" fill="#000000" />
<rect x="45" y="45" width="2" height="6" fill="#2D2725" opacity="0.333333" />
<rect x="19" y="46" width="2" height="4" fill="#2D2725" opacity="0.333333" />
<rect x="21" y="46" width="2" height="1" fill="#000000" />
<rect x="23" y="46" width="1" height="1" fill="#663931" />
<rect x="24" y="46" width="1" height="1" fill="#5B342D" />
<rect x="25" y="46" width="4" height="1" fill="#663931" />
<rect x="29" y="46" width="2" height="1" fill="#462822" />
<rect x="31" y="46" width="2" height="1" fill="#663931" />
<rect x="33" y="46" width="2" height="1" fill="#000000" />
<rect x="35" y="46" width="2" height="1" fill="#663931" />
<rect x="37" y="46" width="2" height="1" fill="#5B342D" />
<rect x="39" y="46" width="2" height="1" fill="#663931" />
<rect x="41" y="46" width="2" height="1" fill="#000000" />
<rect x="43" y="46" width="2" height="4" fill="#2D2725" opacity="0.333333" />
<rect x="21" y="47" width="2" height="2" fill="#2D2725" opacity="0.333333" />
<rect x="23" y="47" width="2" height="1" fill="#000000" />
<rect x="25" y="47" width="2" height="1" fill="#663931" />
<rect x="27" y="47" width="2" height="1" fill="#492923" />
<rect x="29" y="47" width="2" height="1" fill="#663931" />
<rect x="31" y="47" width="2" height="1" fill="#462822" />
<rect x="33" y="47" width="2" height="1" fill="#663931" />
<rect x="35" y="47" width="2" height="1" fill="#000000" />
<rect x="37" y="47" width="2" height="1" fill="#663931" />
<rect x="39" y="47" width="2" height="1" fill="#000000" />
<rect x="41" y="47" width="2" height="2" fill="#2D2725" opacity="0.333333" />
<rect x="9" y="48" width="3" height="3" fill="#2D2725" opacity="0.678431" />
<rect x="12" y="48" width="1" height="1" fill="#2D2725" opacity="0.898039" />
<rect x="23" y="48" width="2" height="1" fill="#2D2725" opacity="0.333333" />
<rect x="25" y="48" width="2" height="1" fill="#000000" />
<rect x="27" y="48" width="2" height="1" fill="#663931" />
<rect x="29" y="48" width="2" height="1" fill="#462822" />
<rect x="31" y="48" width="2" height="1" fill="#663931" />
<rect x="33" y="48" width="1" height="1" fill="#462822" />
<rect x="34" y="48" width="1" height="1" fill="#5B342D" />
<rect x="35" y="48" width="2" height="1" fill="#663931" />
<rect x="37" y="48" width="3" height="1" fill="#000000" />
<rect x="40" y="48" width="1" height="1" fill="#2D2725" opacity="0.333333" />
<rect x="3" y="49" width="6" height="7" fill="#2D2725" opacity="0.678431" />
<rect x="12" y="49" width="1" height="5" fill="#2D2725" opacity="0.333333" />
<rect x="21" y="49" width="1" height="1" fill="#2D2725" opacity="0.333333" />
<rect x="22" y="49" width="3" height="1" fill="#000000" />
<rect x="25" y="49" width="2" height="2" fill="#663931" />
<rect x="27" y="49" width="2" height="1" fill="#000000" />
<rect x="29" y="49" width="2" height="1" fill="#663931" />
<rect x="31" y="49" width="2" height="1" fill="#462822" />
<rect x="33" y="49" width="2" height="1" fill="#663931" />
<rect x="35" y="49" width="1" height="1" fill="#5B342D" />
<rect x="36" y="49" width="4" height="2" fill="#663931" />
<rect x="40" y="49" width="2" height="1" fill="#000000" />
<rect x="42" y="49" width="1" height="1" fill="#2D2725" opacity="0.333333" />
<rect x="0" y="50" width="3" height="9" fill="#2D2725" opacity="0.678431" />
<rect x="19" y="50" width="1" height="1" fill="#2D2725" opacity="0.333333" />
<rect x="20" y="50" width="2" height="1" fill="#000000" />
<rect x="22" y="50" width="3" height="1" fill="#663931" />
<rect x="27" y="50" width="2" height="2" fill="#663931" />
<rect x="29" y="50" width="4" height="1" fill="#000000" />
<rect x="33" y="50" width="2" height="1" fill="#462822" />
<rect x="35" y="50" width="1" height="1" fill="#492923" />
<rect x="40" y="50" width="2" height="1" fill="#663931" />
<rect x="42" y="50" width="2" height="1" fill="#000000" />
<rect x="44" y="50" width="1" height="1" fill="#2D2725" opacity="0.333333" />
<rect x="9" y="51" width="2" height="2" fill="#2D2725" opacity="0.678431" />
<rect x="11" y="51" width="1" height="3" fill="#2D2725" opacity="0.333333" />
<rect x="17" y="51" width="1" height="1" fill="#2D2725" opacity="0.333333" />
<rect x="18" y="51" width="2" height="1" fill="#000000" />
<rect x="20" y="51" width="3" height="1" fill="#663931" />
<rect x="23" y="51" width="2" height="1" fill="#492923" />
<rect x="25" y="51" width="2" height="1" fill="#5B342D" />
<rect x="29" y="51" width="2" height="1" fill="#000000" />
<rect x="31" y="51" width="2" height="9" fill="#2D2725" />
<rect x="33" y="51" width="2" height="1" fill="#000000" />
<rect x="35" y="51" width="1" height="1" fill="#5B342D" />
<rect x="36" y="51" width="1" height="1" fill="#462822" />
<rect x="37" y="51" width="1" height="1" fill="#492923" />
<rect x="38" y="51" width="1" height="1" fill="#663931" />
<rect x="39" y="51" width="2" height="1" fill="#5B342D" />
<rect x="41" y="51" width="3" height="1" fill="#663931" />
<rect x="44" y="51" width="2" height="1" fill="#000000" />
<rect x="46" y="51" width="1" height="1" fill="#2D2725" opacity="0.333333" />
<rect x="15" y="52" width="1" height="1" fill="#2D2725" opacity="0.333333" />
<rect x="16" y="52" width="2" height="1" fill="#000000" />
<rect x="18" y="52" width="3" height="1" fill="#663931" />
<rect x="21" y="52" width="2" height="1" fill="#492923" />
<rect x="23" y="52" width="2" height="1" fill="#5B342D" />
<rect x="25" y="52" width="2" height="1" fill="#663931" />
<rect x="27" y="52" width="2" height="1" fill="#000000" />
<rect x="29" y="52" width="2" height="8" fill="#2D2725" />
<rect x="33" y="52" width="2" height="8" fill="#2D2725" />
<rect x="35" y="52" width="2" height="1" fill="#000000" />
<rect x="37" y="52" width="1" height="1" fill="#5B342D" />
<rect x="38" y="52" width="1" height="1" fill="#462822" />
<rect x="39" y="52" width="1" height="1" fill="#492923" />
<rect x="40" y="52" width="1" height="1" fill="#663931" />
<rect x="41" y="52" width="2" height="1" fill="#5B342D" />
<rect x="43" y="52" width="3" height="1" fill="#663931" />
<rect x="46" y="52" width="2" height="1" fill="#000000" />
<rect x="48" y="52" width="2" height="1" fill="#2D2725" opacity="0.333333" />
<rect x="9" y="53" width="1" height="2" fill="#2D2725" opacity="0.678431" />
<rect x="10" y="53" width="1" height="2" fill="#2D2725" opacity="0.333333" />
<rect x="13" y="53" width="1" height="1" fill="#2D2725" opacity="0.333333" />
<rect x="14" y="53" width="2" height="1" fill="#000000" />
<rect x="16" y="53" width="3" height="1" fill="#663931" />
<rect x="19" y="53" width="2" height="1" fill="#492923" />
<rect x="21" y="53" width="2" height="1" fill="#5B342D" />
<rect x="23" y="53" width="2" height="1" fill="#663931" />
<rect x="25" y="53" width="2" height="1" fill="#000000" />
<rect x="27" y="53" width="2" height="8" fill="#2D2725" />
<rect x="35" y="53" width="2" height="6" fill="#2D2725" />
<rect x="37" y="53" width="2" height="1" fill="#000000" />
<rect x="39" y="53" width="1" height="1" fill="#5B342D" />
<rect x="40" y="53" width="2" height="1" fill="#462822" />
<rect x="42" y="53" width="1" height="1" fill="#492923" />
<rect x="43" y="53" width="2" height="1" fill="#5B342D" />
<rect x="45" y="53" width="1" height="1" fill="#663931" />
<rect x="46" y="53" width="1" height="1" fill="#492923" />
<rect x="47" y="53" width="1" height="1" fill="#663931" />
<rect x="48" y="53" width="3" height="1" fill="#000000" />
<rect x="51" y="53" width="1" height="1" fill="#2D2725" opacity="0.333333" />
<rect x="11" y="54" width="3" height="1" fill="#000000" />
<rect x="14" y="54" width="3" height="1" fill="#663931" />
<rect x="17" y="54" width="1" height="1" fill="#492923" />
<rect x="18" y="54" width="1" height="1" fill="#462822" />
<rect x="19" y="54" width="2" height="1" fill="#5B342D" />
<rect x="21" y="54" width="2" height="1" fill="#663931" />
<rect x="23" y="54" width="2" height="1" fill="#000000" />
<rect x="25" y="54" width="2" height="7" fill="#2D2725" />
<rect x="37" y="54" width="2" height="5" fill="#2D2725" />
<rect x="39" y="54" width="2" height="1" fill="#000000" />
<rect x="41" y="54" width="1" height="1" fill="#663931" />
<rect x="42" y="54" width="1" height="1" fill="#5B342D" />
<rect x="43" y="54" width="1" height="1" fill="#462822" />
<rect x="44" y="54" width="1" height="1" fill="#492923" />
<rect x="45" y="54" width="2" height="1" fill="#5B342D" />
<rect x="47" y="54" width="1" height="1" fill="#462822" />
<rect x="48" y="54" width="1" height="1" fill="#492923" />
<rect x="49" y="54" width="2" height="1" fill="#663931" />
<rect x="51" y="54" width="2" height="1" fill="#000000" />
<rect x="53" y="54" width="1" height="1" fill="#2D2725" opacity="0.333333" />
<rect x="9" y="55" width="3" height="1" fill="#000000" />
<rect x="12" y="55" width="3" height="1" fill="#663931" />
<rect x="15" y="55" width="1" height="1" fill="#492923" />
<rect x="16" y="55" width="1" height="1" fill="#462822" />
<rect x="17" y="55" width="1" height="1" fill="#5B342D" />
<rect x="18" y="55" width="3" height="1" fill="#663931" />
<rect x="21" y="55" width="2" height="1" fill="#000000" />
<rect x="23" y="55" width="2" height="6" fill="#2D2725" />
<rect x="39" y="55" width="2" height="4" fill="#2D2725" />
<rect x="41" y="55" width="2" height="1" fill="#000000" />
<rect x="43" y="55" width="1" height="1" fill="#663931" />
<rect x="44" y="55" width="1" height="1" fill="#5B342D" />
<rect x="45" y="55" width="1" height="1" fill="#462822" />
<rect x="46" y="55" width="1" height="1" fill="#492923" />
<rect x="47" y="55" width="1" height="1" fill="#663931" />
<rect x="48" y="55" width="1" height="1" fill="#5B342D" />
<rect x="49" y="55" width="1" height="1" fill="#462822" />
<rect x="50" y="55" width="1" height="1" fill="#492923" />
<rect x="51" y="55" width="2" height="1" fill="#663931" />
<rect x="53" y="55" width="2" height="1" fill="#000000" />
<rect x="55" y="55" width="1" height="1" fill="#2D2725" opacity="0.333333" />
<rect x="3" y="56" width="4" height="1" fill="#2D2725" opacity="0.678431" />
<rect x="7" y="56" width="2" height="1" fill="#000000" />
<rect x="9" y="56" width="3" height="1" fill="#663931" />
<rect x="12" y="56" width="2" height="1" fill="#492923" />
<rect x="14" y="56" width="1" height="1" fill="#462822" />
<rect x="15" y="56" width="1" height="1" fill="#5B342D" />
<rect x="16" y="56" width="3" height="1" fill="#663931" />
<rect x="19" y="56" width="2" height="1" fill="#000000" />
<rect x="21" y="56" width="2" height="5" fill="#2D2725" />
<rect x="41" y="56" width="2" height="2" fill="#2D2725" />
<rect x="43" y="56" width="2" height="1" fill="#000000" />
<rect x="45" y="56" width="1" height="1" fill="#663931" />
<rect x="46" y="56" width="1" height="1" fill="#5B342D" />
<rect x="47" y="56" width="1" height="1" fill="#462822" />
<rect x="48" y="56" width="1" height="1" fill="#492923" />
<rect x="49" y="56" width="1" height="1" fill="#663931" />
<rect x="50" y="56" width="1" height="1" fill="#5B342D" />
<rect x="51" y="56" width="1" height="1" fill="#462822" />
<rect x="52" y="56" width="1" height="1" fill="#492923" />
<rect x="53" y="56" width="2" height="1" fill="#663931" />
<rect x="55" y="56" width="2" height="1" fill="#000000" />
<rect x="57" y="56" width="1" height="1" fill="#2D2725" opacity="0.333333" />
<rect x="3" y="57" width="2" height="1" fill="#2D2725" opacity="0.678431" />
<rect x="5" y="57" width="2" height="1" fill="#000000" />
<rect x="7" y="57" width="3" height="1" fill="#663931" />
<rect x="10" y="57" width="2" height="1" fill="#492923" />
<rect x="12" y="57" width="2" height="1" fill="#5B342D" />
<rect x="14" y="57" width="2" height="1" fill="#663931" />
<rect x="16" y="57" width="3" height="1" fill="#000000" />
<rect x="19" y="57" width="2" height="5" fill="#2D2725" />
<rect x="43" y="57" width="2" height="1" fill="#2D2725" />
<rect x="45" y="57" width="3" height="1" fill="#000000" />
<rect x="48" y="57" width="2" height="1" fill="#5B342D" />
<rect x="50" y="57" width="2" height="1" fill="#663931" />
<rect x="52" y="57" width="1" height="1" fill="#5B342D" />
<rect x="53" y="57" width="2" height="1" fill="#462822" />
<rect x="55" y="57" width="2" height="1" fill="#663931" />
<rect x="57" y="57" width="2" height="1" fill="#000000" />
<rect x="59" y="57" width="1" height="1" fill="#2D2725" opacity="0.333333" />
<rect x="3" y="58" width="2" height="1" fill="#000000" />
<rect x="5" y="58" width="3" height="1" fill="#663931" />
<rect x="8" y="58" width="1" height="1" fill="#492923" />
<rect x="9" y="58" width="1" height="1" fill="#462822" />
<rect x="10" y="58" width="2" height="1" fill="#5B342D" />
<rect x="12" y="58" width="2" height="1" fill="#663931" />
<rect x="14" y="58" width="2" height="1" fill="#000000" />
<rect x="16" y="58" width="3" height="4" fill="#2D2725" />
<rect x="41" y="58" width="7" height="6" fill="#2D2725" opacity="0.678431" />
<rect x="48" y="58" width="2" height="1" fill="#000000" />
<rect x="50" y="58" width="2" height="1" fill="#5B342D" />
<rect x="52" y="58" width="3" height="1" fill="#663931" />
<rect x="55" y="58" width="2" height="1" fill="#462822" />
<rect x="57" y="58" width="2" height="1" fill="#663931" />
<rect x="59" y="58" width="2" height="1" fill="#000000" />
<rect x="61" y="58" width="1" height="1" fill="#2D2725" opacity="0.333333" />
<rect x="0" y="59" width="1" height="1" fill="#2D2725" opacity="0.678431" />
<rect x="1" y="59" width="2" height="1" fill="#000000" />
<rect x="3" y="59" width="3" height="1" fill="#663931" />
<rect x="6" y="59" width="1" height="1" fill="#492923" />
<rect x="7" y="59" width="1" height="1" fill="#462822" />
<rect x="8" y="59" width="1" height="1" fill="#5B342D" />
<rect x="9" y="59" width="3" height="1" fill="#663931" />
<rect x="12" y="59" width="2" height="1" fill="#000000" />
<rect x="14" y="59" width="2" height="4" fill="#2D2725" />
<rect x="35" y="59" width="6" height="5" fill="#2D2725" opacity="0.678431" />
<rect x="48" y="59" width="2" height="5" fill="#2D2725" opacity="0.678431" />
<rect x="50" y="59" width="2" height="1" fill="#000000" />
<rect x="52" y="59" width="2" height="1" fill="#663931" />
<rect x="54" y="59" width="2" height="1" fill="#5B342D" />
<rect x="56" y="59" width="1" height="1" fill="#663931" />
<rect x="57" y="59" width="2" height="1" fill="#462822" />
<rect x="59" y="59" width="2" height="1" fill="#663931" />
<rect x="61" y="59" width="2" height="1" fill="#000000" />
<rect x="63" y="59" width="1" height="1" fill="#2D2725" opacity="0.333333" />
<rect x="0" y="60" width="1" height="4" fill="#000000" />
<rect x="1" y="60" width="3" height="1" fill="#663931" />
<rect x="4" y="60" width="1" height="1" fill="#492923" />
<rect x="5" y="60" width="1" height="1" fill="#462822" />
<rect x="6" y="60" width="1" height="1" fill="#5B342D" />
<rect x="7" y="60" width="3" height="1" fill="#663931" />
<rect x="10" y="60" width="2" height="1" fill="#000000" />
<rect x="12" y="60" width="2" height="3" fill="#2D2725" />
<rect x="29" y="60" width="6" height="4" fill="#2D2725" opacity="0.678431" />
<rect x="50" y="60" width="2" height="4" fill="#2D2725" opacity="0.678431" />
<rect x="52" y="60" width="2" height="1" fill="#000000" />
<rect x="54" y="60" width="2" height="1" fill="#663931" />
<rect x="56" y="60" width="2" height="1" fill="#5B342D" />
<rect x="58" y="60" width="1" height="1" fill="#663931" />
<rect x="59" y="60" width="2" height="1" fill="#462822" />
<rect x="61" y="60" width="2" height="1" fill="#663931" />
<rect x="63" y="60" width="1" height="4" fill="#000000" />
<rect x="1" y="61" width="1" height="2" fill="#663931" />
<rect x="2" y="61" width="1" height="1" fill="#492923" />
<rect x="3" y="61" width="1" height="1" fill="#462822" />
<rect x="4" y="61" width="1" height="1" fill="#5B342D" />
<rect x="5" y="61" width="3" height="1" fill="#663931" />
<rect x="8" y="61" width="2" height="1" fill="#000000" />
<rect x="10" y="61" width="2" height="2" fill="#2D2725" />
<rect x="21" y="61" width="1" height="1" fill="#2D2725" />
<rect x="22" y="61" width="7" height="3" fill="#2D2725" opacity="0.678431" />
<rect x="52" y="61" width="2" height="3" fill="#2D2725" opacity="0.678431" />
<rect x="54" y="61" width="2" height="1" fill="#000000" />
<rect x="56" y="61" width="2" height="1" fill="#663931" />
<rect x="58" y="61" width="2" height="1" fill="#5B342D" />
<rect x="60" y="61" width="1" height="2" fill="#663931" />
<rect x="61" y="61" width="1" height="1" fill="#492923" />
<rect x="62" y="61" width="1" height="2" fill="#663931" />
<rect x="2" y="62" width="4" height="1" fill="#663931" />
<rect x="6" y="62" width="2" height="1" fill="#000000" />
<rect x="8" y="62" width="2" height="2" fill="#2D2725" />
<rect x="16" y="62" width="6" height="2" fill="#2D2725" opacity="0.678431" />
<rect x="54" y="62" width="2" height="2" fill="#2D2725" opacity="0.678431" />
<rect x="56" y="62" width="2" height="1" fill="#000000" />
<rect x="58" y="62" width="2" height="1" fill="#663931" />
<rect x="61" y="62" width="1" height="1" fill="#663931" />
<rect x="1" y="63" width="5" height="1" fill="#000000" />
<rect x="6" y="63" width="2" height="1" fill="#2D2725" />
<rect x="10" y="63" width="6" height="1" fill="#2D2725" opacity="0.678431" />
<rect x="56" y="63" width="2" height="1" fill="#2D2725" opacity="0.678431" />
<rect x="58" y="63" width="5" height="1" fill="#000000" />
</svg>